<svg width="15" height="14" viewBox="0 0 15 14" fill="none" xmlns="http://www.w3.org/2000/svg">
<path d="M5.59375 0L0.330625 12.4375L1.90625 13.2188L6.025 0H5.59375ZM8.7875 0L12.9062 13.2188L14.4812 12.4375L9.21875 0H8.7875ZM6.30625 1L6.20937 1.3125H8.60312L8.50625 1L7.2375 0.21875L6.30625 1ZM3.80937 2.125L3.67188 2.5625H3.89687L4.7375 1.71875L3.80937 2.125ZM5.95937 2.125L5.825 2.5625H8.9875L8.85312 2.125L7.2375 1.21875L5.95937 2.125ZM10.2375 1.71875L10.9156 2.5625H11.1594L11.0219 2.125L10.2375 1.71875ZM2.86562 3.6875L2.675 4.25H3.18438L3.7375 3.21875L2.86562 3.6875ZM5.47813 3.6875L5.30625 4.25H9.50625L9.33438 3.6875L7.2375 2.71875L5.47813 3.6875ZM11.1594 3.21875L11.6281 4.25H12.1438L11.9594 3.6875L11.1594 3.21875ZM1.74625 5.625L1.52437 6.4375H2.25781L2.90625 5.21875L1.74625 5.625ZM4.88125 5.625L4.63125 6.4375H10.1812L9.93125 5.625L7.2375 4.71875L4.88125 5.625ZM12.0281 5.21875L12.5562 6.4375H13.2875L13.0656 5.625L12.0281 5.21875ZM0.750937 8L0.516562 8.9375H1.20031L1.90625 7.21875L0.750937 8ZM4.15312 8L3.8625 8.9375L7.2375 9.71875L10.95 8.9375L10.6594 8L7.2375 7.71875L4.15312 8ZM12.9062 7.21875L13.6125 8.9375H14.2969L14.0625 8L12.9062 7.21875ZM0 11V11.775L0.90625 10.2188L0 11ZM3.22813 11L2.78437 12.4375L7.23743 13.7188L12.0281 12.4375L11.5844 11H3.22813ZM14.0625 10.2188L14.8125 11.775V11L14.0625 10.2188Z" fill="black"/>
</svg>
